<?xml version="1.0" encoding="utf-8" standalone="no"?>
<!DOCTYPE svg PUBLIC "-//W3C//DTD SVG 1.1//EN"
  "http://www.w3.org/Graphics/SVG/1.1/DTD/svg11.dtd">
<svg xmlns:xlink="http://www.w3.org/1999/xlink" width="432pt" height="288pt" viewBox="0 0 432 288" xmlns="http://www.w3.org/2000/svg" version="1.1">
 <metadata>
  <rdf:RDF xmlns:dc="http://purl.org/dc/elements/1.1/" xmlns:cc="http://creativecommons.org/ns#" xmlns:rdf="http://www.w3.org/1999/02/22-rdf-syntax-ns#">
   <cc:Work>
    <dc:type rdf:resource="http://purl.org/dc/dcmitype/StillImage"/>
    <dc:date>2024-06-04T18:11:39.637348</dc:date>
    <dc:format>image/svg+xml</dc:format>
    <dc:creator>
     <cc:Agent>
      <dc:title>Matplotlib v3.9.0, https://matplotlib.org/</dc:title>
     </cc:Agent>
    </dc:creator>
   </cc:Work>
  </rdf:RDF>
 </metadata>
 <defs>
  <style type="text/css">*{stroke-linejoin: round; stroke-linecap: butt}</style>
 </defs>
 <g id="figure_1">
  <g id="patch_1">
   <path d="M 0 288 
L 432 288 
L 432 0 
L 0 0 
z
" style="fill: #ffffff"/>
  </g>
  <g id="axes_1">
   <g id="text_1">
    <!--  -->
    <g transform="translate(221.4 51.283313) scale(0.12 -0.12)"/>
    <!-- \begin{tabular}{|c|c|} -->
    <g transform="translate(153.216563 64.783688) scale(0.12 -0.12)">
     <defs>
      <path id="DejaVuSans-5c" d="M 531 4666 
L 2156 -594 
L 1625 -594 
L 0 4666 
L 531 4666 
z
" transform="scale(0.015625)"/>
      <path id="DejaVuSans-62" d="M 3116 1747 
Q 3116 2381 2855 2742 
Q 2594 3103 2138 3103 
Q 1681 3103 1420 2742 
Q 1159 2381 1159 1747 
Q 1159 1113 1420 752 
Q 1681 391 2138 391 
Q 2594 391 2855 752 
Q 3116 1113 3116 1747 
z
M 1159 2969 
Q 1341 3281 1617 3432 
Q 1894 3584 2278 3584 
Q 2916 3584 3314 3078 
Q 3713 2572 3713 1747 
Q 3713 922 3314 415 
Q 2916 -91 2278 -91 
Q 1894 -91 1617 61 
Q 1341 213 1159 525 
L 1159 0 
L 581 0 
L 581 4863 
L 1159 4863 
L 1159 2969 
z
" transform="scale(0.015625)"/>
      <path id="DejaVuSans-65" d="M 3597 1894 
L 3597 1613 
L 953 1613 
Q 991 1019 1311 708 
Q 1631 397 2203 397 
Q 2534 397 2845 478 
Q 3156 559 3463 722 
L 3463 178 
Q 3153 47 2828 -22 
Q 2503 -91 2169 -91 
Q 1331 -91 842 396 
Q 353 884 353 1716 
Q 353 2575 817 3079 
Q 1281 3584 2069 3584 
Q 2775 3584 3186 3129 
Q 3597 2675 3597 1894 
z
M 3022 2063 
Q 3016 2534 2758 2815 
Q 2500 3097 2075 3097 
Q 1594 3097 1305 2825 
Q 1016 2553 972 2059 
L 3022 2063 
z
" transform="scale(0.015625)"/>
      <path id="DejaVuSans-67" d="M 2906 1791 
Q 2906 2416 2648 2759 
Q 2391 3103 1925 3103 
Q 1463 3103 1205 2759 
Q 947 2416 947 1791 
Q 947 1169 1205 825 
Q 1463 481 1925 481 
Q 2391 481 2648 825 
Q 2906 1169 2906 1791 
z
M 3481 434 
Q 3481 -459 3084 -895 
Q 2688 -1331 1869 -1331 
Q 1566 -1331 1297 -1286 
Q 1028 -1241 775 -1147 
L 775 -588 
Q 1028 -725 1275 -790 
Q 1522 -856 1778 -856 
Q 2344 -856 2625 -561 
Q 2906 -266 2906 331 
L 2906 616 
Q 2728 306 2450 153 
Q 2172 0 1784 0 
Q 1141 0 747 490 
Q 353 981 353 1791 
Q 353 2603 747 3093 
Q 1141 3584 1784 3584 
Q 2172 3584 2450 3431 
Q 2728 3278 2906 2969 
L 2906 3500 
L 3481 3500 
L 3481 434 
z
" transform="scale(0.015625)"/>
      <path id="DejaVuSans-69" d="M 603 3500 
L 1178 3500 
L 1178 0 
L 603 0 
L 603 3500 
z
M 603 4863 
L 1178 4863 
L 1178 4134 
L 603 4134 
L 603 4863 
z
" transform="scale(0.015625)"/>
      <path id="DejaVuSans-6e" d="M 3513 2113 
L 3513 0 
L 2938 0 
L 2938 2094 
Q 2938 2591 2744 2837 
Q 2550 3084 2163 3084 
Q 1697 3084 1428 2787 
Q 1159 2491 1159 1978 
L 1159 0 
L 581 0 
L 581 3500 
L 1159 3500 
L 1159 2956 
Q 1366 3272 1645 3428 
Q 1925 3584 2291 3584 
Q 2894 3584 3203 3211 
Q 3513 2838 3513 2113 
z
" transform="scale(0.015625)"/>
      <path id="DejaVuSans-7b" d="M 3272 -594 
L 3272 -1044 
L 3078 -1044 
Q 2300 -1044 2036 -812 
Q 1772 -581 1772 109 
L 1772 856 
Q 1772 1328 1603 1509 
Q 1434 1691 991 1691 
L 800 1691 
L 800 2138 
L 991 2138 
Q 1438 2138 1605 2317 
Q 1772 2497 1772 2963 
L 1772 3713 
Q 1772 4403 2036 4633 
Q 2300 4863 3078 4863 
L 3272 4863 
L 3272 4416 
L 3059 4416 
Q 2619 4416 2484 4278 
Q 2350 4141 2350 3700 
L 2350 2925 
Q 2350 2434 2208 2212 
Q 2066 1991 1722 1913 
Q 2069 1828 2209 1606 
Q 2350 1384 2350 897 
L 2350 122 
Q 2350 -319 2484 -456 
Q 2619 -594 3059 -594 
L 3272 -594 
z
" transform="scale(0.015625)"/>
      <path id="DejaVuSans-74" d="M 1172 4494 
L 1172 3500 
L 2356 3500 
L 2356 3053 
L 1172 3053 
L 1172 1153 
Q 1172 725 1289 603 
Q 1406 481 1766 481 
L 2356 481 
L 2356 0 
L 1766 0 
Q 1100 0 847 248 
Q 594 497 594 1153 
L 594 3053 
L 172 3053 
L 172 3500 
L 594 3500 
L 594 4494 
L 1172 4494 
z
" transform="scale(0.015625)"/>
      <path id="DejaVuSans-61" d="M 2194 1759 
Q 1497 1759 1228 1600 
Q 959 1441 959 1056 
Q 959 750 1161 570 
Q 1363 391 1709 391 
Q 2188 391 2477 730 
Q 2766 1069 2766 1631 
L 2766 1759 
L 2194 1759 
z
M 3341 1997 
L 3341 0 
L 2766 0 
L 2766 531 
Q 2569 213 2275 61 
Q 1981 -91 1556 -91 
Q 1019 -91 701 211 
Q 384 513 384 1019 
Q 384 1609 779 1909 
Q 1175 2209 1959 2209 
L 2766 2209 
L 2766 2266 
Q 2766 2663 2505 2880 
Q 2244 3097 1772 3097 
Q 1472 3097 1187 3025 
Q 903 2953 641 2809 
L 641 3341 
Q 956 3463 1253 3523 
Q 1550 3584 1831 3584 
Q 2591 3584 2966 3190 
Q 3341 2797 3341 1997 
z
" transform="scale(0.015625)"/>
      <path id="DejaVuSans-75" d="M 544 1381 
L 544 3500 
L 1119 3500 
L 1119 1403 
Q 1119 906 1312 657 
Q 1506 409 1894 409 
Q 2359 409 2629 706 
Q 2900 1003 2900 1516 
L 2900 3500 
L 3475 3500 
L 3475 0 
L 2900 0 
L 2900 538 
Q 2691 219 2414 64 
Q 2138 -91 1772 -91 
Q 1169 -91 856 284 
Q 544 659 544 1381 
z
M 1991 3584 
L 1991 3584 
z
" transform="scale(0.015625)"/>
      <path id="DejaVuSans-6c" d="M 603 4863 
L 1178 4863 
L 1178 0 
L 603 0 
L 603 4863 
z
" transform="scale(0.015625)"/>
      <path id="DejaVuSans-72" d="M 2631 2963 
Q 2534 3019 2420 3045 
Q 2306 3072 2169 3072 
Q 1681 3072 1420 2755 
Q 1159 2438 1159 1844 
L 1159 0 
L 581 0 
L 581 3500 
L 1159 3500 
L 1159 2956 
Q 1341 3275 1631 3429 
Q 1922 3584 2338 3584 
Q 2397 3584 2469 3576 
Q 2541 3569 2628 3553 
L 2631 2963 
z
" transform="scale(0.015625)"/>
      <path id="DejaVuSans-7d" d="M 800 -594 
L 1019 -594 
Q 1456 -594 1589 -459 
Q 1722 -325 1722 122 
L 1722 897 
Q 1722 1384 1862 1606 
Q 2003 1828 2350 1913 
Q 2003 1991 1862 2212 
Q 1722 2434 1722 2925 
L 1722 3700 
Q 1722 4144 1589 4280 
Q 1456 4416 1019 4416 
L 800 4416 
L 800 4863 
L 997 4863 
Q 1775 4863 2036 4633 
Q 2297 4403 2297 3713 
L 2297 2963 
Q 2297 2497 2465 2317 
Q 2634 2138 3078 2138 
L 3272 2138 
L 3272 1691 
L 3078 1691 
Q 2634 1691 2465 1509 
Q 2297 1328 2297 856 
L 2297 109 
Q 2297 -581 2036 -812 
Q 1775 -1044 997 -1044 
L 800 -1044 
L 800 -594 
z
" transform="scale(0.015625)"/>
      <path id="DejaVuSans-7c" d="M 1344 4891 
L 1344 -1509 
L 813 -1509 
L 813 4891 
L 1344 4891 
z
" transform="scale(0.015625)"/>
      <path id="DejaVuSans-63" d="M 3122 3366 
L 3122 2828 
Q 2878 2963 2633 3030 
Q 2388 3097 2138 3097 
Q 1578 3097 1268 2742 
Q 959 2388 959 1747 
Q 959 1106 1268 751 
Q 1578 397 2138 397 
Q 2388 397 2633 464 
Q 2878 531 3122 666 
L 3122 134 
Q 2881 22 2623 -34 
Q 2366 -91 2075 -91 
Q 1284 -91 818 406 
Q 353 903 353 1747 
Q 353 2603 823 3093 
Q 1294 3584 2113 3584 
Q 2378 3584 2631 3529 
Q 2884 3475 3122 3366 
z
" transform="scale(0.015625)"/>
     </defs>
     <use xlink:href="#DejaVuSans-5c"/>
     <use xlink:href="#DejaVuSans-62" x="33.691406"/>
     <use xlink:href="#DejaVuSans-65" x="97.167969"/>
     <use xlink:href="#DejaVuSans-67" x="158.691406"/>
     <use xlink:href="#DejaVuSans-69" x="222.167969"/>
     <use xlink:href="#DejaVuSans-6e" x="249.951172"/>
     <use xlink:href="#DejaVuSans-7b" x="313.330078"/>
     <use xlink:href="#DejaVuSans-74" x="376.953125"/>
     <use xlink:href="#DejaVuSans-61" x="416.162109"/>
     <use xlink:href="#DejaVuSans-62" x="477.441406"/>
     <use xlink:href="#DejaVuSans-75" x="540.917969"/>
     <use xlink:href="#DejaVuSans-6c" x="604.296875"/>
     <use xlink:href="#DejaVuSans-61" x="632.080078"/>
     <use xlink:href="#DejaVuSans-72" x="693.359375"/>
     <use xlink:href="#DejaVuSans-7d" x="734.472656"/>
     <use xlink:href="#DejaVuSans-7b" x="798.095703"/>
     <use xlink:href="#DejaVuSans-7c" x="861.71875"/>
     <use xlink:href="#DejaVuSans-63" x="895.410156"/>
     <use xlink:href="#DejaVuSans-7c" x="950.390625"/>
     <use xlink:href="#DejaVuSans-63" x="984.082031"/>
     <use xlink:href="#DejaVuSans-7c" x="1039.0625"/>
     <use xlink:href="#DejaVuSans-7d" x="1072.753906"/>
    </g>
    <!--   \hline -->
    <g transform="translate(200.934375 78.554813) scale(0.12 -0.12)">
     <defs>
      <path id="DejaVuSans-20" transform="scale(0.015625)"/>
      <path id="DejaVuSans-68" d="M 3513 2113 
L 3513 0 
L 2938 0 
L 2938 2094 
Q 2938 2591 2744 2837 
Q 2550 3084 2163 3084 
Q 1697 3084 1428 2787 
Q 1159 2491 1159 1978 
L 1159 0 
L 581 0 
L 581 4863 
L 1159 4863 
L 1159 2956 
Q 1366 3272 1645 3428 
Q 1925 3584 2291 3584 
Q 2894 3584 3203 3211 
Q 3513 2838 3513 2113 
z
" transform="scale(0.015625)"/>
     </defs>
     <use xlink:href="#DejaVuSans-20"/>
     <use xlink:href="#DejaVuSans-20" x="31.787109"/>
     <use xlink:href="#DejaVuSans-5c" x="63.574219"/>
     <use xlink:href="#DejaVuSans-68" x="97.265625"/>
     <use xlink:href="#DejaVuSans-6c" x="160.644531"/>
     <use xlink:href="#DejaVuSans-69" x="188.427734"/>
     <use xlink:href="#DejaVuSans-6e" x="216.210938"/>
     <use xlink:href="#DejaVuSans-65" x="279.589844"/>
    </g>
    <!--   Time &amp; Active Proteins \\ -->
    <g transform="translate(143.841563 91.992188) scale(0.12 -0.12)">
     <defs>
      <path id="DejaVuSans-54" d="M -19 4666 
L 3928 4666 
L 3928 4134 
L 2272 4134 
L 2272 0 
L 1638 0 
L 1638 4134 
L -19 4134 
L -19 4666 
z
" transform="scale(0.015625)"/>
      <path id="DejaVuSans-6d" d="M 3328 2828 
Q 3544 3216 3844 3400 
Q 4144 3584 4550 3584 
Q 5097 3584 5394 3201 
Q 5691 2819 5691 2113 
L 5691 0 
L 5113 0 
L 5113 2094 
Q 5113 2597 4934 2840 
Q 4756 3084 4391 3084 
Q 3944 3084 3684 2787 
Q 3425 2491 3425 1978 
L 3425 0 
L 2847 0 
L 2847 2094 
Q 2847 2600 2669 2842 
Q 2491 3084 2119 3084 
Q 1678 3084 1418 2786 
Q 1159 2488 1159 1978 
L 1159 0 
L 581 0 
L 581 3500 
L 1159 3500 
L 1159 2956 
Q 1356 3278 1631 3431 
Q 1906 3584 2284 3584 
Q 2666 3584 2933 3390 
Q 3200 3197 3328 2828 
z
" transform="scale(0.015625)"/>
      <path id="DejaVuSans-26" d="M 1556 2509 
Q 1272 2256 1139 2004 
Q 1006 1753 1006 1478 
Q 1006 1022 1337 719 
Q 1669 416 2169 416 
Q 2466 416 2725 514 
Q 2984 613 3213 813 
L 1556 2509 
z
M 1997 2859 
L 3584 1234 
Q 3769 1513 3872 1830 
Q 3975 2147 3994 2503 
L 4575 2503 
Q 4538 2091 4375 1687 
Q 4213 1284 3922 891 
L 4794 0 
L 4006 0 
L 3559 459 
Q 3234 181 2878 45 
Q 2522 -91 2113 -91 
Q 1359 -91 881 339 
Q 403 769 403 1441 
Q 403 1841 612 2192 
Q 822 2544 1241 2853 
Q 1091 3050 1012 3245 
Q 934 3441 934 3628 
Q 934 4134 1281 4442 
Q 1628 4750 2203 4750 
Q 2463 4750 2720 4694 
Q 2978 4638 3244 4525 
L 3244 3956 
Q 2972 4103 2725 4179 
Q 2478 4256 2266 4256 
Q 1938 4256 1733 4082 
Q 1528 3909 1528 3634 
Q 1528 3475 1620 3314 
Q 1713 3153 1997 2859 
z
" transform="scale(0.015625)"/>
      <path id="DejaVuSans-41" d="M 2188 4044 
L 1331 1722 
L 3047 1722 
L 2188 4044 
z
M 1831 4666 
L 2547 4666 
L 4325 0 
L 3669 0 
L 3244 1197 
L 1141 1197 
L 716 0 
L 50 0 
L 1831 4666 
z
" transform="scale(0.015625)"/>
      <path id="DejaVuSans-76" d="M 191 3500 
L 800 3500 
L 1894 563 
L 2988 3500 
L 3597 3500 
L 2284 0 
L 1503 0 
L 191 3500 
z
" transform="scale(0.015625)"/>
      <path id="DejaVuSans-50" d="M 1259 4147 
L 1259 2394 
L 2053 2394 
Q 2494 2394 2734 2622 
Q 2975 2850 2975 3272 
Q 2975 3691 2734 3919 
Q 2494 4147 2053 4147 
L 1259 4147 
z
M 628 4666 
L 2053 4666 
Q 2838 4666 3239 4311 
Q 3641 3956 3641 3272 
Q 3641 2581 3239 2228 
Q 2838 1875 2053 1875 
L 1259 1875 
L 1259 0 
L 628 0 
L 628 4666 
z
" transform="scale(0.015625)"/>
      <path id="DejaVuSans-6f" d="M 1959 3097 
Q 1497 3097 1228 2736 
Q 959 2375 959 1747 
Q 959 1119 1226 758 
Q 1494 397 1959 397 
Q 2419 397 2687 759 
Q 2956 1122 2956 1747 
Q 2956 2369 2687 2733 
Q 2419 3097 1959 3097 
z
M 1959 3584 
Q 2709 3584 3137 3096 
Q 3566 2609 3566 1747 
Q 3566 888 3137 398 
Q 2709 -91 1959 -91 
Q 1206 -91 779 398 
Q 353 888 353 1747 
Q 353 2609 779 3096 
Q 1206 3584 1959 3584 
z
" transform="scale(0.015625)"/>
      <path id="DejaVuSans-73" d="M 2834 3397 
L 2834 2853 
Q 2591 2978 2328 3040 
Q 2066 3103 1784 3103 
Q 1356 3103 1142 2972 
Q 928 2841 928 2578 
Q 928 2378 1081 2264 
Q 1234 2150 1697 2047 
L 1894 2003 
Q 2506 1872 2764 1633 
Q 3022 1394 3022 966 
Q 3022 478 2636 193 
Q 2250 -91 1575 -91 
Q 1294 -91 989 -36 
Q 684 19 347 128 
L 347 722 
Q 666 556 975 473 
Q 1284 391 1588 391 
Q 1994 391 2212 530 
Q 2431 669 2431 922 
Q 2431 1156 2273 1281 
Q 2116 1406 1581 1522 
L 1381 1569 
Q 847 1681 609 1914 
Q 372 2147 372 2553 
Q 372 3047 722 3315 
Q 1072 3584 1716 3584 
Q 2034 3584 2315 3537 
Q 2597 3491 2834 3397 
z
" transform="scale(0.015625)"/>
     </defs>
     <use xlink:href="#DejaVuSans-20"/>
     <use xlink:href="#DejaVuSans-20" x="31.787109"/>
     <use xlink:href="#DejaVuSans-54" x="63.574219"/>
     <use xlink:href="#DejaVuSans-69" x="121.533203"/>
     <use xlink:href="#DejaVuSans-6d" x="149.316406"/>
     <use xlink:href="#DejaVuSans-65" x="246.728516"/>
     <use xlink:href="#DejaVuSans-20" x="308.251953"/>
     <use xlink:href="#DejaVuSans-26" x="340.039062"/>
     <use xlink:href="#DejaVuSans-20" x="418.017578"/>
     <use xlink:href="#DejaVuSans-41" x="449.804688"/>
     <use xlink:href="#DejaVuSans-63" x="516.462891"/>
     <use xlink:href="#DejaVuSans-74" x="571.443359"/>
     <use xlink:href="#DejaVuSans-69" x="610.652344"/>
     <use xlink:href="#DejaVuSans-76" x="638.435547"/>
     <use xlink:href="#DejaVuSans-65" x="697.615234"/>
     <use xlink:href="#DejaVuSans-20" x="759.138672"/>
     <use xlink:href="#DejaVuSans-50" x="790.925781"/>
     <use xlink:href="#DejaVuSans-72" x="849.478516"/>
     <use xlink:href="#DejaVuSans-6f" x="888.341797"/>
     <use xlink:href="#DejaVuSans-74" x="949.523438"/>
     <use xlink:href="#DejaVuSans-65" x="988.732422"/>
     <use xlink:href="#DejaVuSans-69" x="1050.255859"/>
     <use xlink:href="#DejaVuSans-6e" x="1078.039062"/>
     <use xlink:href="#DejaVuSans-73" x="1141.417969"/>
     <use xlink:href="#DejaVuSans-20" x="1193.517578"/>
     <use xlink:href="#DejaVuSans-5c" x="1225.304688"/>
     <use xlink:href="#DejaVuSans-5c" x="1258.996094"/>
    </g>
    <!--   \hline -->
    <g transform="translate(200.934375 105.429563) scale(0.12 -0.12)">
     <use xlink:href="#DejaVuSans-20"/>
     <use xlink:href="#DejaVuSans-20" x="31.787109"/>
     <use xlink:href="#DejaVuSans-5c" x="63.574219"/>
     <use xlink:href="#DejaVuSans-68" x="97.265625"/>
     <use xlink:href="#DejaVuSans-6c" x="160.644531"/>
     <use xlink:href="#DejaVuSans-69" x="188.427734"/>
     <use xlink:href="#DejaVuSans-6e" x="216.210938"/>
     <use xlink:href="#DejaVuSans-65" x="279.589844"/>
    </g>
    <!--   $t^1$ &amp; a^1 b c d e f g h j \\ -->
    <g transform="translate(143.76 120.885188) scale(0.12 -0.12)">
     <defs>
      <path id="DejaVuSans-Oblique-74" d="M 2706 3500 
L 2619 3053 
L 1472 3053 
L 1100 1153 
Q 1081 1047 1072 975 
Q 1063 903 1063 863 
Q 1063 663 1183 572 
Q 1303 481 1569 481 
L 2150 481 
L 2053 0 
L 1503 0 
Q 991 0 739 200 
Q 488 400 488 806 
Q 488 878 497 964 
Q 506 1050 525 1153 
L 897 3053 
L 409 3053 
L 500 3500 
L 978 3500 
L 1172 4494 
L 1747 4494 
L 1556 3500 
L 2706 3500 
z
" transform="scale(0.015625)"/>
      <path id="DejaVuSans-31" d="M 794 531 
L 1825 531 
L 1825 4091 
L 703 3866 
L 703 4441 
L 1819 4666 
L 2450 4666 
L 2450 531 
L 3481 531 
L 3481 0 
L 794 0 
L 794 531 
z
" transform="scale(0.015625)"/>
      <path id="DejaVuSans-5e" d="M 2988 4666 
L 4684 2925 
L 4056 2925 
L 2681 4159 
L 1306 2925 
L 678 2925 
L 2375 4666 
L 2988 4666 
z
" transform="scale(0.015625)"/>
      <path id="DejaVuSans-64" d="M 2906 2969 
L 2906 4863 
L 3481 4863 
L 3481 0 
L 2906 0 
L 2906 525 
Q 2725 213 2448 61 
Q 2172 -91 1784 -91 
Q 1150 -91 751 415 
Q 353 922 353 1747 
Q 353 2572 751 3078 
Q 1150 3584 1784 3584 
Q 2172 3584 2448 3432 
Q 2725 3281 2906 2969 
z
M 947 1747 
Q 947 1113 1208 752 
Q 1469 391 1925 391 
Q 2381 391 2643 752 
Q 2906 1113 2906 1747 
Q 2906 2381 2643 2742 
Q 2381 3103 1925 3103 
Q 1469 3103 1208 2742 
Q 947 2381 947 1747 
z
" transform="scale(0.015625)"/>
      <path id="DejaVuSans-66" d="M 2375 4863 
L 2375 4384 
L 1825 4384 
Q 1516 4384 1395 4259 
Q 1275 4134 1275 3809 
L 1275 3500 
L 2222 3500 
L 2222 3053 
L 1275 3053 
L 1275 0 
L 697 0 
L 697 3053 
L 147 3053 
L 147 3500 
L 697 3500 
L 697 3744 
Q 697 4328 969 4595 
Q 1241 4863 1831 4863 
L 2375 4863 
z
" transform="scale(0.015625)"/>
      <path id="DejaVuSans-6a" d="M 603 3500 
L 1178 3500 
L 1178 -63 
Q 1178 -731 923 -1031 
Q 669 -1331 103 -1331 
L -116 -1331 
L -116 -844 
L 38 -844 
Q 366 -844 484 -692 
Q 603 -541 603 -63 
L 603 3500 
z
M 603 4863 
L 1178 4863 
L 1178 4134 
L 603 4134 
L 603 4863 
z
" transform="scale(0.015625)"/>
     </defs>
     <use xlink:href="#DejaVuSans-20" transform="translate(0 0.684375)"/>
     <use xlink:href="#DejaVuSans-20" transform="translate(31.787109 0.684375)"/>
     <use xlink:href="#DejaVuSans-Oblique-74" transform="translate(63.574219 0.684375)"/>
     <use xlink:href="#DejaVuSans-31" transform="translate(109.423724 38.965625) scale(0.7)"/>
     <use xlink:href="#DejaVuSans-20" transform="translate(156.694232 0.684375)"/>
     <use xlink:href="#DejaVuSans-26" transform="translate(188.481341 0.684375)"/>
     <use xlink:href="#DejaVuSans-20" transform="translate(266.459857 0.684375)"/>
     <use xlink:href="#DejaVuSans-61" transform="translate(298.246966 0.684375)"/>
     <use xlink:href="#DejaVuSans-5e" transform="translate(359.526263 0.684375)"/>
     <use xlink:href="#DejaVuSans-31" transform="translate(443.315326 0.684375)"/>
     <use xlink:href="#DejaVuSans-20" transform="translate(506.938372 0.684375)"/>
     <use xlink:href="#DejaVuSans-62" transform="translate(538.725482 0.684375)"/>
     <use xlink:href="#DejaVuSans-20" transform="translate(602.202044 0.684375)"/>
     <use xlink:href="#DejaVuSans-63" transform="translate(633.989154 0.684375)"/>
     <use xlink:href="#DejaVuSans-20" transform="translate(688.969622 0.684375)"/>
     <use xlink:href="#DejaVuSans-64" transform="translate(720.756732 0.684375)"/>
     <use xlink:href="#DejaVuSans-20" transform="translate(784.233294 0.684375)"/>
     <use xlink:href="#DejaVuSans-65" transform="translate(816.020404 0.684375)"/>
     <use xlink:href="#DejaVuSans-20" transform="translate(877.543841 0.684375)"/>
     <use xlink:href="#DejaVuSans-66" transform="translate(909.330951 0.684375)"/>
     <use xlink:href="#DejaVuSans-20" transform="translate(944.536029 0.684375)"/>
     <use xlink:href="#DejaVuSans-67" transform="translate(976.323138 0.684375)"/>
     <use xlink:href="#DejaVuSans-20" transform="translate(1039.799701 0.684375)"/>
     <use xlink:href="#DejaVuSans-68" transform="translate(1071.58681 0.684375)"/>
     <use xlink:href="#DejaVuSans-20" transform="translate(1134.965716 0.684375)"/>
     <use xlink:href="#DejaVuSans-6a" transform="translate(1166.752826 0.684375)"/>
     <use xlink:href="#DejaVuSans-20" transform="translate(1194.536029 0.684375)"/>
     <use xlink:href="#DejaVuSans-5c" transform="translate(1226.323138 0.684375)"/>
     <use xlink:href="#DejaVuSans-5c" transform="translate(1260.014544 0.684375)"/>
    </g>
    <!--   \hline -->
    <g transform="translate(200.934375 134.346938) scale(0.12 -0.12)">
     <use xlink:href="#DejaVuSans-20"/>
     <use xlink:href="#DejaVuSans-20" x="31.787109"/>
     <use xlink:href="#DejaVuSans-5c" x="63.574219"/>
     <use xlink:href="#DejaVuSans-68" x="97.265625"/>
     <use xlink:href="#DejaVuSans-6c" x="160.644531"/>
     <use xlink:href="#DejaVuSans-69" x="188.427734"/>
     <use xlink:href="#DejaVuSans-6e" x="216.210938"/>
     <use xlink:href="#DejaVuSans-65" x="279.589844"/>
    </g>
    <!--   $t^2$ &amp; p1 p2 p3 p4 p5 p6 p7 p8 \\ -->
    <g transform="translate(123.18 149.946563) scale(0.12 -0.12)">
     <defs>
      <path id="DejaVuSans-32" d="M 1228 531 
L 3431 531 
L 3431 0 
L 469 0 
L 469 531 
Q 828 903 1448 1529 
Q 2069 2156 2228 2338 
Q 2531 2678 2651 2914 
Q 2772 3150 2772 3378 
Q 2772 3750 2511 3984 
Q 2250 4219 1831 4219 
Q 1534 4219 1204 4116 
Q 875 4013 500 3803 
L 500 4441 
Q 881 4594 1212 4672 
Q 1544 4750 1819 4750 
Q 2544 4750 2975 4387 
Q 3406 4025 3406 3419 
Q 3406 3131 3298 2873 
Q 3191 2616 2906 2266 
Q 2828 2175 2409 1742 
Q 1991 1309 1228 531 
z
" transform="scale(0.015625)"/>
      <path id="DejaVuSans-70" d="M 1159 525 
L 1159 -1331 
L 581 -1331 
L 581 3500 
L 1159 3500 
L 1159 2969 
Q 1341 3281 1617 3432 
Q 1894 3584 2278 3584 
Q 2916 3584 3314 3078 
Q 3713 2572 3713 1747 
Q 3713 922 3314 415 
Q 2916 -91 2278 -91 
Q 1894 -91 1617 61 
Q 1341 213 1159 525 
z
M 3116 1747 
Q 3116 2381 2855 2742 
Q 2594 3103 2138 3103 
Q 1681 3103 1420 2742 
Q 1159 2381 1159 1747 
Q 1159 1113 1420 752 
Q 1681 391 2138 391 
Q 2594 391 2855 752 
Q 3116 1113 3116 1747 
z
" transform="scale(0.015625)"/>
      <path id="DejaVuSans-33" d="M 2597 2516 
Q 3050 2419 3304 2112 
Q 3559 1806 3559 1356 
Q 3559 666 3084 287 
Q 2609 -91 1734 -91 
Q 1441 -91 1130 -33 
Q 819 25 488 141 
L 488 750 
Q 750 597 1062 519 
Q 1375 441 1716 441 
Q 2309 441 2620 675 
Q 2931 909 2931 1356 
Q 2931 1769 2642 2001 
Q 2353 2234 1838 2234 
L 1294 2234 
L 1294 2753 
L 1863 2753 
Q 2328 2753 2575 2939 
Q 2822 3125 2822 3475 
Q 2822 3834 2567 4026 
Q 2313 4219 1838 4219 
Q 1578 4219 1281 4162 
Q 984 4106 628 3988 
L 628 4550 
Q 988 4650 1302 4700 
Q 1616 4750 1894 4750 
Q 2613 4750 3031 4423 
Q 3450 4097 3450 3541 
Q 3450 3153 3228 2886 
Q 3006 2619 2597 2516 
z
" transform="scale(0.015625)"/>
      <path id="DejaVuSans-34" d="M 2419 4116 
L 825 1625 
L 2419 1625 
L 2419 4116 
z
M 2253 4666 
L 3047 4666 
L 3047 1625 
L 3713 1625 
L 3713 1100 
L 3047 1100 
L 3047 0 
L 2419 0 
L 2419 1100 
L 313 1100 
L 313 1709 
L 2253 4666 
z
" transform="scale(0.015625)"/>
      <path id="DejaVuSans-35" d="M 691 4666 
L 3169 4666 
L 3169 4134 
L 1269 4134 
L 1269 2991 
Q 1406 3038 1543 3061 
Q 1681 3084 1819 3084 
Q 2600 3084 3056 2656 
Q 3513 2228 3513 1497 
Q 3513 744 3044 326 
Q 2575 -91 1722 -91 
Q 1428 -91 1123 -41 
Q 819 9 494 109 
L 494 744 
Q 775 591 1075 516 
Q 1375 441 1709 441 
Q 2250 441 2565 725 
Q 2881 1009 2881 1497 
Q 2881 1984 2565 2268 
Q 2250 2553 1709 2553 
Q 1456 2553 1204 2497 
Q 953 2441 691 2322 
L 691 4666 
z
" transform="scale(0.015625)"/>
      <path id="DejaVuSans-36" d="M 2113 2584 
Q 1688 2584 1439 2293 
Q 1191 2003 1191 1497 
Q 1191 994 1439 701 
Q 1688 409 2113 409 
Q 2538 409 2786 701 
Q 3034 994 3034 1497 
Q 3034 2003 2786 2293 
Q 2538 2584 2113 2584 
z
M 3366 4563 
L 3366 3988 
Q 3128 4100 2886 4159 
Q 2644 4219 2406 4219 
Q 1781 4219 1451 3797 
Q 1122 3375 1075 2522 
Q 1259 2794 1537 2939 
Q 1816 3084 2150 3084 
Q 2853 3084 3261 2657 
Q 3669 2231 3669 1497 
Q 3669 778 3244 343 
Q 2819 -91 2113 -91 
Q 1303 -91 875 529 
Q 447 1150 447 2328 
Q 447 3434 972 4092 
Q 1497 4750 2381 4750 
Q 2619 4750 2861 4703 
Q 3103 4656 3366 4563 
z
" transform="scale(0.015625)"/>
      <path id="DejaVuSans-37" d="M 525 4666 
L 3525 4666 
L 3525 4397 
L 1831 0 
L 1172 0 
L 2766 4134 
L 525 4134 
L 525 4666 
z
" transform="scale(0.015625)"/>
      <path id="DejaVuSans-38" d="M 2034 2216 
Q 1584 2216 1326 1975 
Q 1069 1734 1069 1313 
Q 1069 891 1326 650 
Q 1584 409 2034 409 
Q 2484 409 2743 651 
Q 3003 894 3003 1313 
Q 3003 1734 2745 1975 
Q 2488 2216 2034 2216 
z
M 1403 2484 
Q 997 2584 770 2862 
Q 544 3141 544 3541 
Q 544 4100 942 4425 
Q 1341 4750 2034 4750 
Q 2731 4750 3128 4425 
Q 3525 4100 3525 3541 
Q 3525 3141 3298 2862 
Q 3072 2584 2669 2484 
Q 3125 2378 3379 2068 
Q 3634 1759 3634 1313 
Q 3634 634 3220 271 
Q 2806 -91 2034 -91 
Q 1263 -91 848 271 
Q 434 634 434 1313 
Q 434 1759 690 2068 
Q 947 2378 1403 2484 
z
M 1172 3481 
Q 1172 3119 1398 2916 
Q 1625 2713 2034 2713 
Q 2441 2713 2670 2916 
Q 2900 3119 2900 3481 
Q 2900 3844 2670 4047 
Q 2441 4250 2034 4250 
Q 1625 4250 1398 4047 
Q 1172 3844 1172 3481 
z
" transform="scale(0.015625)"/>
     </defs>
     <use xlink:href="#DejaVuSans-20" transform="translate(0 0.765625)"/>
     <use xlink:href="#DejaVuSans-20" transform="translate(31.787109 0.765625)"/>
     <use xlink:href="#DejaVuSans-Oblique-74" transform="translate(63.574219 0.765625)"/>
     <use xlink:href="#DejaVuSans-32" transform="translate(109.423724 39.046875) scale(0.7)"/>
     <use xlink:href="#DejaVuSans-20" transform="translate(156.694232 0.765625)"/>
     <use xlink:href="#DejaVuSans-26" transform="translate(188.481341 0.765625)"/>
     <use xlink:href="#DejaVuSans-20" transform="translate(266.459857 0.765625)"/>
     <use xlink:href="#DejaVuSans-70" transform="translate(298.246966 0.765625)"/>
     <use xlink:href="#DejaVuSans-31" transform="translate(361.723529 0.765625)"/>
     <use xlink:href="#DejaVuSans-20" transform="translate(425.346576 0.765625)"/>
     <use xlink:href="#DejaVuSans-70" transform="translate(457.133685 0.765625)"/>
     <use xlink:href="#DejaVuSans-32" transform="translate(520.610247 0.765625)"/>
     <use xlink:href="#DejaVuSans-20" transform="translate(584.233294 0.765625)"/>
     <use xlink:href="#DejaVuSans-70" transform="translate(616.020404 0.765625)"/>
     <use xlink:href="#DejaVuSans-33" transform="translate(679.496966 0.765625)"/>
     <use xlink:href="#DejaVuSans-20" transform="translate(743.120013 0.765625)"/>
     <use xlink:href="#DejaVuSans-70" transform="translate(774.907122 0.765625)"/>
     <use xlink:href="#DejaVuSans-34" transform="translate(838.383685 0.765625)"/>
     <use xlink:href="#DejaVuSans-20" transform="translate(902.006732 0.765625)"/>
     <use xlink:href="#DejaVuSans-70" transform="translate(933.793841 0.765625)"/>
     <use xlink:href="#DejaVuSans-35" transform="translate(997.270404 0.765625)"/>
     <use xlink:href="#DejaVuSans-20" transform="translate(1060.893451 0.765625)"/>
     <use xlink:href="#DejaVuSans-70" transform="translate(1092.68056 0.765625)"/>
     <use xlink:href="#DejaVuSans-36" transform="translate(1156.157122 0.765625)"/>
     <use xlink:href="#DejaVuSans-20" transform="translate(1219.780169 0.765625)"/>
     <use xlink:href="#DejaVuSans-70" transform="translate(1251.567279 0.765625)"/>
     <use xlink:href="#DejaVuSans-37" transform="translate(1315.043841 0.765625)"/>
     <use xlink:href="#DejaVuSans-20" transform="translate(1378.666888 0.765625)"/>
     <use xlink:href="#DejaVuSans-70" transform="translate(1410.453997 0.765625)"/>
     <use xlink:href="#DejaVuSans-38" transform="translate(1473.93056 0.765625)"/>
     <use xlink:href="#DejaVuSans-20" transform="translate(1537.553607 0.765625)"/>
     <use xlink:href="#DejaVuSans-5c" transform="translate(1569.340716 0.765625)"/>
     <use xlink:href="#DejaVuSans-5c" transform="translate(1603.032122 0.765625)"/>
    </g>
    <!--   \hline -->
    <g transform="translate(200.934375 163.408313) scale(0.12 -0.12)">
     <use xlink:href="#DejaVuSans-20"/>
     <use xlink:href="#DejaVuSans-20" x="31.787109"/>
     <use xlink:href="#DejaVuSans-5c" x="63.574219"/>
     <use xlink:href="#DejaVuSans-68" x="97.265625"/>
     <use xlink:href="#DejaVuSans-6c" x="160.644531"/>
     <use xlink:href="#DejaVuSans-69" x="188.427734"/>
     <use xlink:href="#DejaVuSans-6e" x="216.210938"/>
     <use xlink:href="#DejaVuSans-65" x="279.589844"/>
    </g>
    <!--   $t^3$ &amp; p1 p2 p3 p4 p5 p6 p7 p8 \\ -->
    <g transform="translate(123.18 179.007938) scale(0.12 -0.12)">
     <use xlink:href="#DejaVuSans-20" transform="translate(0 0.765625)"/>
     <use xlink:href="#DejaVuSans-20" transform="translate(31.787109 0.765625)"/>
     <use xlink:href="#DejaVuSans-Oblique-74" transform="translate(63.574219 0.765625)"/>
     <use xlink:href="#DejaVuSans-33" transform="translate(109.423724 39.046875) scale(0.7)"/>
     <use xlink:href="#DejaVuSans-20" transform="translate(156.694232 0.765625)"/>
     <use xlink:href="#DejaVuSans-26" transform="translate(188.481341 0.765625)"/>
     <use xlink:href="#DejaVuSans-20" transform="translate(266.459857 0.765625)"/>
     <use xlink:href="#DejaVuSans-70" transform="translate(298.246966 0.765625)"/>
     <use xlink:href="#DejaVuSans-31" transform="translate(361.723529 0.765625)"/>
     <use xlink:href="#DejaVuSans-20" transform="translate(425.346576 0.765625)"/>
     <use xlink:href="#DejaVuSans-70" transform="translate(457.133685 0.765625)"/>
     <use xlink:href="#DejaVuSans-32" transform="translate(520.610247 0.765625)"/>
     <use xlink:href="#DejaVuSans-20" transform="translate(584.233294 0.765625)"/>
     <use xlink:href="#DejaVuSans-70" transform="translate(616.020404 0.765625)"/>
     <use xlink:href="#DejaVuSans-33" transform="translate(679.496966 0.765625)"/>
     <use xlink:href="#DejaVuSans-20" transform="translate(743.120013 0.765625)"/>
     <use xlink:href="#DejaVuSans-70" transform="translate(774.907122 0.765625)"/>
     <use xlink:href="#DejaVuSans-34" transform="translate(838.383685 0.765625)"/>
     <use xlink:href="#DejaVuSans-20" transform="translate(902.006732 0.765625)"/>
     <use xlink:href="#DejaVuSans-70" transform="translate(933.793841 0.765625)"/>
     <use xlink:href="#DejaVuSans-35" transform="translate(997.270404 0.765625)"/>
     <use xlink:href="#DejaVuSans-20" transform="translate(1060.893451 0.765625)"/>
     <use xlink:href="#DejaVuSans-70" transform="translate(1092.68056 0.765625)"/>
     <use xlink:href="#DejaVuSans-36" transform="translate(1156.157122 0.765625)"/>
     <use xlink:href="#DejaVuSans-20" transform="translate(1219.780169 0.765625)"/>
     <use xlink:href="#DejaVuSans-70" transform="translate(1251.567279 0.765625)"/>
     <use xlink:href="#DejaVuSans-37" transform="translate(1315.043841 0.765625)"/>
     <use xlink:href="#DejaVuSans-20" transform="translate(1378.666888 0.765625)"/>
     <use xlink:href="#DejaVuSans-70" transform="translate(1410.453997 0.765625)"/>
     <use xlink:href="#DejaVuSans-38" transform="translate(1473.93056 0.765625)"/>
     <use xlink:href="#DejaVuSans-20" transform="translate(1537.553607 0.765625)"/>
     <use xlink:href="#DejaVuSans-5c" transform="translate(1569.340716 0.765625)"/>
     <use xlink:href="#DejaVuSans-5c" transform="translate(1603.032122 0.765625)"/>
    </g>
    <!--   \hline -->
    <g transform="translate(200.934375 192.469688) scale(0.12 -0.12)">
     <use xlink:href="#DejaVuSans-20"/>
     <use xlink:href="#DejaVuSans-20" x="31.787109"/>
     <use xlink:href="#DejaVuSans-5c" x="63.574219"/>
     <use xlink:href="#DejaVuSans-68" x="97.265625"/>
     <use xlink:href="#DejaVuSans-6c" x="160.644531"/>
     <use xlink:href="#DejaVuSans-69" x="188.427734"/>
     <use xlink:href="#DejaVuSans-6e" x="216.210938"/>
     <use xlink:href="#DejaVuSans-65" x="279.589844"/>
    </g>
    <!--   $\dots$ &amp; $\dots$ \\ -->
    <g transform="translate(186.42 205.907063) scale(0.12 -0.12)">
     <defs>
      <path id="DejaVuSans-2026" d="M 2869 794 
L 3531 794 
L 3531 0 
L 2869 0 
L 2869 794 
z
M 4997 794 
L 5663 794 
L 5663 0 
L 4997 0 
L 4997 794 
z
M 738 794 
L 1403 794 
L 1403 0 
L 738 0 
L 738 794 
z
" transform="scale(0.015625)"/>
     </defs>
     <use xlink:href="#DejaVuSans-20" transform="translate(0 0.78125)"/>
     <use xlink:href="#DejaVuSans-20" transform="translate(31.787109 0.78125)"/>
     <use xlink:href="#DejaVuSans-2026" transform="translate(83.056641 0.78125)"/>
     <use xlink:href="#DejaVuSans-20" transform="translate(202.539062 0.78125)"/>
     <use xlink:href="#DejaVuSans-26" transform="translate(234.326172 0.78125)"/>
     <use xlink:href="#DejaVuSans-20" transform="translate(312.304688 0.78125)"/>
     <use xlink:href="#DejaVuSans-2026" transform="translate(363.574219 0.78125)"/>
     <use xlink:href="#DejaVuSans-20" transform="translate(483.056641 0.78125)"/>
     <use xlink:href="#DejaVuSans-5c" transform="translate(514.84375 0.78125)"/>
     <use xlink:href="#DejaVuSans-5c" transform="translate(548.535156 0.78125)"/>
    </g>
    <!--   \hline -->
    <g transform="translate(200.934375 219.344438) scale(0.12 -0.12)">
     <use xlink:href="#DejaVuSans-20"/>
     <use xlink:href="#DejaVuSans-20" x="31.787109"/>
     <use xlink:href="#DejaVuSans-5c" x="63.574219"/>
     <use xlink:href="#DejaVuSans-68" x="97.265625"/>
     <use xlink:href="#DejaVuSans-6c" x="160.644531"/>
     <use xlink:href="#DejaVuSans-69" x="188.427734"/>
     <use xlink:href="#DejaVuSans-6e" x="216.210938"/>
     <use xlink:href="#DejaVuSans-65" x="279.589844"/>
    </g>
    <!-- \end{tabular} -->
    <g transform="translate(178.989375 232.781813) scale(0.12 -0.12)">
     <use xlink:href="#DejaVuSans-5c"/>
     <use xlink:href="#DejaVuSans-65" x="33.691406"/>
     <use xlink:href="#DejaVuSans-6e" x="95.214844"/>
     <use xlink:href="#DejaVuSans-64" x="158.59375"/>
     <use xlink:href="#DejaVuSans-7b" x="222.070312"/>
     <use xlink:href="#DejaVuSans-74" x="285.693359"/>
     <use xlink:href="#DejaVuSans-61" x="324.902344"/>
     <use xlink:href="#DejaVuSans-62" x="386.181641"/>
     <use xlink:href="#DejaVuSans-75" x="449.658203"/>
     <use xlink:href="#DejaVuSans-6c" x="513.037109"/>
     <use xlink:href="#DejaVuSans-61" x="540.820312"/>
     <use xlink:href="#DejaVuSans-72" x="602.099609"/>
     <use xlink:href="#DejaVuSans-7d" x="643.212891"/>
    </g>
    <!--  -->
    <g transform="translate(221.4 246.219187) scale(0.12 -0.12)"/>
   </g>
  </g>
 </g>
</svg>
